<mxfile host="app.diagrams.net" modified="2024-05-13T03:24:30.858Z" agent="Mozilla/5.0 (Windows NT 10.0; Win64; x64) AppleWebKit/537.36 (KHTML, like Gecko) Chrome/124.0.0.0 Safari/537.36" etag="TA7ClgjQRE7RqPRw9Xzm" version="24.4.0" type="device">
  <diagram name="Page-1" id="c9db0220-8083-56f3-ca83-edcdcd058819">
    <mxGraphModel dx="2049" dy="1114" grid="1" gridSize="10" guides="1" tooltips="1" connect="1" arrows="1" fold="1" page="1" pageScale="1.5" pageWidth="826" pageHeight="1169" background="#ffffff" math="0" shadow="0">
      <root>
        <mxCell id="0" style=";html=1;" />
        <mxCell id="1" style=";html=1;" parent="0" />
        <mxCell id="r-rvIdP5-9nG3_iLqJgC-3" value="Вступительное окно" style="swimlane;whiteSpace=wrap;html=1;" vertex="1" parent="1">
          <mxGeometry x="210" y="130" width="810" height="510" as="geometry" />
        </mxCell>
        <mxCell id="3d76a8aef4d5c911-17" value="Логин" style="html=1;shadow=0;dashed=0;shape=mxgraph.bootstrap.rect;strokeColor=none;fillColor=none;fontColor=#999999;align=left;spacingLeft=5;whiteSpace=wrap;rounded=0;" parent="r-rvIdP5-9nG3_iLqJgC-3" vertex="1">
          <mxGeometry x="5" y="100" width="200" height="20" as="geometry" />
        </mxCell>
        <mxCell id="3d76a8aef4d5c911-18" value="" style="html=1;shadow=0;dashed=0;shape=mxgraph.bootstrap.rrect;rSize=5;strokeColor=#dddddd;;align=left;spacingLeft=10;fontSize=16;whiteSpace=wrap;rounded=0;" parent="r-rvIdP5-9nG3_iLqJgC-3" vertex="1">
          <mxGeometry x="5" y="120" width="800" height="40" as="geometry" />
        </mxCell>
        <mxCell id="3d76a8aef4d5c911-19" value="Пароль" style="html=1;shadow=0;dashed=0;shape=mxgraph.bootstrap.rect;strokeColor=none;fillColor=none;fontColor=#999999;align=left;spacingLeft=5;whiteSpace=wrap;rounded=0;" parent="r-rvIdP5-9nG3_iLqJgC-3" vertex="1">
          <mxGeometry x="5" y="180" width="200" height="20" as="geometry" />
        </mxCell>
        <mxCell id="3d76a8aef4d5c911-20" value="" style="html=1;shadow=0;dashed=0;shape=mxgraph.bootstrap.rrect;rSize=5;strokeColor=#dddddd;align=left;spacingLeft=10;fontSize=16;whiteSpace=wrap;rounded=0;" parent="r-rvIdP5-9nG3_iLqJgC-3" vertex="1">
          <mxGeometry x="5" y="200" width="800" height="40" as="geometry" />
        </mxCell>
        <mxCell id="3d76a8aef4d5c911-51" value="Регистрация" style="html=1;shadow=0;dashed=0;shape=mxgraph.bootstrap.rrect;align=center;rSize=5;strokeColor=none;fillColor=#3D8BCD;fontColor=#ffffff;fontSize=16;whiteSpace=wrap;rounded=0;" parent="r-rvIdP5-9nG3_iLqJgC-3" vertex="1">
          <mxGeometry x="330" y="320" width="150" height="40" as="geometry" />
        </mxCell>
        <mxCell id="r-rvIdP5-9nG3_iLqJgC-1" value="Логин" style="html=1;shadow=0;dashed=0;shape=mxgraph.bootstrap.rrect;align=center;rSize=5;strokeColor=none;fillColor=#3D8BCD;fontColor=#ffffff;fontSize=16;whiteSpace=wrap;rounded=0;" vertex="1" parent="r-rvIdP5-9nG3_iLqJgC-3">
          <mxGeometry x="330" y="270" width="150" height="40" as="geometry" />
        </mxCell>
        <mxCell id="r-rvIdP5-9nG3_iLqJgC-2" value="Выход" style="html=1;shadow=0;dashed=0;shape=mxgraph.bootstrap.rrect;align=center;rSize=5;strokeColor=none;fillColor=#3D8BCD;fontColor=#ffffff;fontSize=16;whiteSpace=wrap;rounded=0;" vertex="1" parent="r-rvIdP5-9nG3_iLqJgC-3">
          <mxGeometry x="330" y="370" width="150" height="40" as="geometry" />
        </mxCell>
      </root>
    </mxGraphModel>
  </diagram>
</mxfile>
